<svg width="64" height="64" viewBox="0 0 64 64" fill="none" xmlns="http://www.w3.org/2000/svg">
<path d="M62.2183 30.6025C62.2149 13.6978 48.5078 -0.00341734 31.6025 6.39362e-07C14.6978 0.00341861 0.996583 13.7109 1 30.6157C1.00293 43.9316 9.61377 55.7178 22.2988 59.7681C22.4199 59.8062 22.5459 59.8257 22.6724 59.8252C22.9136 59.8247 23.1499 59.7603 23.3574 59.6377C23.6274 59.478 23.8291 59.2241 23.9238 58.9248L31.6538 34.4248C33.7671 34.4141 35.4712 32.6919 35.46 30.5791C35.4492 28.4658 33.7275 26.7617 31.6143 26.7725C31.0459 26.7749 30.4849 26.9058 29.9741 27.1553L19.7622 16.9419C19.2554 16.4526 18.4482 16.4668 17.959 16.9731C17.4814 17.4678 17.4814 18.251 17.959 18.7456L28.1655 28.9639C27.3823 30.5625 27.8301 32.4922 29.2383 33.582L21.873 56.9277C7.31738 51.5659 -0.135742 35.4199 5.22608 20.8643C10.5879 6.30859 26.7339 -1.14453 41.2896 4.21729C55.8452 9.5791 63.2983 25.7256 57.9365 40.2808C55.3169 47.3921 49.9346 53.1431 43.0122 56.2275L42.2163 52.479C42.0708 51.79 41.3936 51.3496 40.7046 51.4956C40.4873 51.542 40.2856 51.6441 40.1196 51.792L32.4458 58.6431C31.9194 59.1113 31.8726 59.9175 32.3413 60.4439C32.4937 60.6148 32.689 60.7417 32.9077 60.8115L42.7051 63.9385C43.3755 64.1538 44.0938 63.7852 44.3091 63.1143C44.3774 62.9024 44.3887 62.6768 44.3428 62.459L43.5606 58.7808C54.8892 54.0049 62.2446 42.8965 62.2183 30.6025ZM31.6094 29.3272C32.3135 29.3272 32.8848 29.8984 32.8848 30.6025C32.8848 31.3071 32.3135 31.8779 31.6094 31.8779C30.9048 31.8779 30.334 31.3071 30.334 30.6025C30.334 29.8984 30.9048 29.3272 31.6094 29.3272ZM35.8101 59.0552L40.1782 55.1587L41.3838 60.8394L35.8101 59.0552Z" fill="#2E2F42"/>
<path d="M30.709 6.37012V8.9209C30.709 9.62549 31.2798 10.1963 31.9844 10.1963C32.6885 10.1963 33.2598 9.62549 33.2598 8.9209V6.37012C33.2598 5.66602 32.6885 5.09473 31.9844 5.09473C31.2798 5.09473 30.709 5.66602 30.709 6.37012Z" fill="#4D5AE5"/>
<path d="M7.75195 29.3271C7.04736 29.3271 6.47656 29.8984 6.47656 30.6025C6.47656 31.3071 7.04736 31.8779 7.75195 31.8779H10.3027C11.0073 31.8779 11.5781 31.3071 11.5781 30.6025C11.5781 29.8984 11.0073 29.3271 10.3027 29.3271H7.75195Z" fill="#4D5AE5"/>
<path d="M56.2162 31.8779C56.9208 31.8779 57.4916 31.3071 57.4916 30.6025C57.4916 29.8984 56.9208 29.3271 56.2162 29.3271H53.6655C52.9614 29.3271 52.3901 29.8984 52.3901 30.6025C52.3901 31.3071 52.9614 31.8779 53.6655 31.8779H56.2162Z" fill="#4D5AE5"/>
</svg>
